<svg width="20" height="20" viewBox="0 0 20 20" fill="none" xmlns="http://www.w3.org/2000/svg">
<path fill-rule="evenodd" clip-rule="evenodd" d="M9.30154 0.833009H10.6991C11.1384 0.832994 11.5174 0.832981 11.8295 0.858484C12.159 0.885401 12.4867 0.944831 12.802 1.10549C13.2724 1.34518 13.6548 1.72763 13.8945 2.19803C14.0552 2.51335 14.1146 2.84103 14.1415 3.17049C14.1644 3.4503 14.1667 3.78381 14.167 4.16634H17.5003C17.9606 4.16634 18.3337 4.53944 18.3337 4.99968C18.3337 5.45991 17.9606 5.83301 17.5003 5.83301H16.667V14.3674C16.667 15.0382 16.667 15.5919 16.6302 16.0429C16.5919 16.5113 16.5098 16.9419 16.3037 17.3463C15.9841 17.9735 15.4742 18.4835 14.847 18.803C14.4425 19.0091 14.0119 19.0912 13.5435 19.1295C13.0925 19.1664 12.5389 19.1664 11.8681 19.1663H8.13256C7.46176 19.1664 6.90813 19.1664 6.45714 19.1295C5.98872 19.0912 5.55814 19.0091 5.15369 18.803C4.52648 18.4835 4.01655 17.9735 3.69697 17.3463C3.49089 16.9419 3.40876 16.5113 3.37049 16.0429C3.33364 15.5919 3.33365 15.0382 3.33366 14.3674L3.33366 5.83301H2.50033C2.04009 5.83301 1.66699 5.45991 1.66699 4.99968C1.66699 4.53944 2.04009 4.16634 2.50033 4.16634H5.83368C5.83391 3.78381 5.83627 3.4503 5.85913 3.17049C5.88605 2.84103 5.94548 2.51335 6.10614 2.19803C6.34583 1.72763 6.72828 1.34518 7.19868 1.10549C7.514 0.944831 7.84168 0.885401 8.17114 0.858484C8.48328 0.832981 8.86225 0.832994 9.30154 0.833009ZM5.00033 5.83301V14.333C5.00033 15.0468 5.00097 15.5321 5.03162 15.9071C5.06147 16.2725 5.11557 16.4593 5.18198 16.5897C5.34177 16.9033 5.59674 17.1582 5.91034 17.318C6.04067 17.3844 6.22751 17.4385 6.59286 17.4684C6.96793 17.499 7.45318 17.4997 8.16699 17.4997H11.8337C12.5475 17.4997 13.0327 17.499 13.4078 17.4684C13.7731 17.4385 13.96 17.3844 14.0903 17.318C14.4039 17.1582 14.6589 16.9033 14.8187 16.5897C14.8851 16.4593 14.9392 16.2725 14.969 15.9071C14.9997 15.5321 15.0003 15.0468 15.0003 14.333V5.83301H5.00033ZM12.5003 4.16634H7.50039C7.50075 3.77876 7.5033 3.51383 7.52027 3.30621C7.53876 3.07982 7.57016 2.99589 7.59115 2.95468C7.67105 2.79788 7.79853 2.6704 7.95533 2.5905C7.99654 2.56951 8.08047 2.53811 8.30686 2.51962C8.54297 2.50032 8.8532 2.49968 9.33366 2.49968H10.667C11.1475 2.49968 11.4577 2.50032 11.6938 2.51962C11.9202 2.53811 12.0041 2.56951 12.0453 2.5905C12.2021 2.6704 12.3296 2.79788 12.4095 2.95468C12.4305 2.99589 12.4619 3.07982 12.4804 3.30621C12.4974 3.51383 12.4999 3.77876 12.5003 4.16634ZM8.33366 8.74968C8.7939 8.74968 9.16699 9.12277 9.16699 9.58301V13.7497C9.16699 14.2099 8.7939 14.583 8.33366 14.583C7.87342 14.583 7.50033 14.2099 7.50033 13.7497V9.58301C7.50033 9.12277 7.87342 8.74968 8.33366 8.74968ZM11.667 8.74968C12.1272 8.74968 12.5003 9.12277 12.5003 9.58301V13.7497C12.5003 14.2099 12.1272 14.583 11.667 14.583C11.2068 14.583 10.8337 14.2099 10.8337 13.7497V9.58301C10.8337 9.12277 11.2068 8.74968 11.667 8.74968Z" fill="black"/>
</svg>
